<svg width="100" height="125" viewBox="0 0 100 125" fill="none" xmlns="http://www.w3.org/2000/svg">
<path d="M49 68C52.4267 68.0017 55.8136 67.265 58.93 65.84L67.73 78.31C68.3413 79.1772 69.2721 79.7661 70.3176 79.9471C71.3632 80.1281 72.4378 79.8863 73.305 79.275C74.1723 78.6637 74.7612 77.7329 74.9421 76.6873C75.1231 75.6418 74.8813 74.5672 74.27 73.7L65.56 61.35C69.5916 57.4968 72.1554 52.3599 72.8111 46.8218C73.4668 41.2837 72.1734 35.6901 69.1531 31.002C66.1328 26.3139 61.5741 22.8239 56.2603 21.1316C50.9464 19.4394 45.2091 19.6505 40.034 21.7286C34.8589 23.8068 30.5691 27.6223 27.9014 32.5197C25.2338 37.4171 24.3549 43.0906 25.4158 48.5655C26.4767 54.0405 29.4111 58.9751 33.7149 62.5216C38.0187 66.0682 43.4232 68.0052 49 68ZM49 28C52.1645 28 55.2579 28.9384 57.8891 30.6965C60.5203 32.4546 62.5711 34.9534 63.7821 37.8771C64.9931 40.8007 65.3099 44.0177 64.6926 47.1214C64.0752 50.2251 62.5514 53.0761 60.3137 55.3137C58.0761 57.5513 55.2251 59.0752 52.1215 59.6926C49.0178 60.3099 45.8007 59.9931 42.8771 58.7821C39.9535 57.5711 37.4546 55.5203 35.6965 52.8891C33.9384 50.2579 33 47.1645 33 44C33 39.7565 34.6857 35.6869 37.6863 32.6863C40.6869 29.6857 44.7565 28 49 28Z" fill="#ffff"/>
</svg>
